<?xml version="1.0" encoding="UTF-8"?>
<svg width="535" height="317" version="1.0" viewBox="0 0 401.25 237.75" xmlns="http://www.w3.org/2000/svg" zoomAndPan="magnify">
<defs>
<clipPath id="c">
<path d="m143 18h140.92v123h-140.92z"/>
</clipPath>
<clipPath id="b">
<path d="m131.14 0.097656h88.863v122.9h-88.863z"/>
</clipPath>
<clipPath id="a">
<path d="m189 150h83v4.8242h-83z"/>
</clipPath>
</defs>
<g clip-path="url(#c)">
<path d="m233.39 103.52c56.68-43.629 44.836-81.059 4.7773-84.301 17.406-2.9883 32.219 0.30469 40.09 10.566 15.195 19.812-1.332 58.078-36.902 85.453-35.57 27.379-76.734 33.512-91.949 13.699-7.8672-10.262-7.2266-25.453 0.12891-41.523-16.332 44.941 34.289 54.207 83.84 16.09z" fill="#046db5" fill-rule="evenodd"/>
</g>
<path d="m191.57 63.895c0.92969-1.8164 3.9766-4.6914 6.5742-5.5898l-0.33984-1.0586-1.25-3.9023 6.75-2.1836 1.668 5.1875c1.3477-0.40234 3.4297-0.097656 4.5508 0.015625 1.4453 0.16016 2.7422 0.5625 3.9609 1.1875 2.3398 1.2031 4.6016 3.293 5.7227 6.793l-7.3438 2.375c-0.39844-1.2344-1.1836-2.1211-1.9531-2.6797-0.53125-0.38672-2.1172-1.0781-2.8047-1.0117l2.9961 9.3125c1.0586-0.33984 3.6406-0.33984 4.6172-0.35547 1.3477-0.015625 3.0938 0.14453 4.2617 0.48438 2.3594 0.67188 4.9375 2.6953 5.9805 5.9219l0.41797 1.2852c1.1211 3.4844 0.11328 6.5859-1.1211 8.8789-0.99609 1.832-4.3477 4.9297-7.0391 5.8633l1.2031 3.7578-6.75 2.1836-1.2344-3.8398c-4.2461 0.99609-9.5039 0.066407-12.68-3.1133-0.96094-0.98047-2.0352-2.4727-2.5977-4.2227l-0.23828-0.75391 7.0508-2.2812c0.12891-0.046876 2.1641 2.6953 2.6289 3.0508 0.70703 0.51172 2.6641 1.1875 3.7539 0.85156l-3.1914-9.9062c-0.76953 0.22266-3.5898 0.23828-4.4414 0.22266-8.3516-0.078126-12.984-9.0078-9.1836-16.492zm45.574 31.391c-4.9375-16.859-4.8086-40.867 0.41797-72l-1.6211-0.12891c-11.27 4.9297-32.188 14.113-62.773 27.523 2.1953 28.434 10.34 51.188 24.43 68.273 12.055-4.2539 23.582-11.176 33.312-18.66 2.0508-1.5703 4.1328-3.2422 6.2344-4.9922z" fill="#046db5" fill-rule="evenodd"/>
<g clip-path="url(#b)">
<path d="m169.43 49.008c-16.559 7.7539 0 0 49.676-23.281l-1.6328-14.824-63.465 30.75c0.27344 26.305 9.2812 50.004 27.09 75.613-20.871-27.281-31.641-49.793-32.203-77.875-17.23 8.1875 0 0 51.68-24.551l-2.5156-14.535-66.941 27.734c2.0352 16.086 9.4102 36.512 20.246 55.734l2.3711 4.0938c7.7617 13.02 17.09 25.289 27.398 35.02 0.91406-0.11328 1.8086-0.22656 2.6758-0.37109 3.7656-0.60938 7.5195-1.5234 11.238-2.7266-14.012-15.625-22.859-38.25-25.633-70.781z" fill="#00a8de" fill-rule="evenodd"/>
</g>
<path d="m197.86 66.926c-1.3164 1.9609-0.40234 4.8828 1.8086 5.6719 0.5 0.17578 2.5195 0.35156 3.1602 0.20703l-2.5977-8.0273c-0.6875 0.28906-2.0352 1.6523-2.3867 2.168z" fill="#046db5" fill-rule="evenodd"/>
<path d="m212.46 79.547 2.7422 8.4805c1.2344-0.43359 2.0195-1.5586 2.5977-2.3594 0.57422-0.80469 0.78516-2.2656 0.36719-3.5664l-0.0625-0.22656c-0.67578-2.0859-3.7539-2.4883-5.6445-2.3281z" fill="#046db5" fill-rule="evenodd"/>
<path d="m243.86 118.49c-8.4961 6.5352-18.098 12.477-28.211 17.051 1.4414 1.0117 2.9336 1.9922 4.457 2.9219-1.7148-0.83203-3.3984-1.7344-5.0352-2.6641-3.1719 1.4141-6.4102 2.6992-9.6797 3.8203 19.25 8.4648 40.039 6.0703 59.598-15.637-6.6523-1.4961-12.246-4.4805-16.785-8.9453-1.4258 1.1875-2.8672 2.3438-4.3281 3.4688z" fill="#00a8de" fill-rule="evenodd"/>
<g clip-path="url(#a)">
<path d="m230.88 154.62c22.586 0 40.91-0.93359 40.91-2.1055 0-1.1562-18.324-2.0859-40.91-2.0859s-40.891 0.92969-40.891 2.0859 18.32 2.1055 40.891 2.1055z" fill="#d2d3d5" fill-rule="evenodd"/>
</g>
<path d="m191.38 45.828c-4.9531 2.168-9.9062 4.3359-14.859 6.5195 0.43359 5.7344 1.1523 11.465 2.1797 17.199 0.046875-7.3867 0.51172-12.496 1.3945-15.336 2.6133-2.8125 6.3633-5.6055 11.285-8.3672z" fill="#42bae1" fill-rule="evenodd"/>
<g fill="#046db5">
<g transform="translate(20.229 193.41)">
<path d="m25.922-26.438c0.97656 0 1.7383 0.21484 2.2812 0.64062 0.53906 0.42969 0.8125 1.0117 0.8125 1.75 0 0.36719-0.054687 0.71875-0.15625 1.0625l-1.0312 3.7031c-0.1875 0.71094-0.46484 1.2031-0.82812 1.4844-0.35547 0.27344-0.85938 0.40625-1.5156 0.40625-0.63672 0-1.1367-0.13281-1.5-0.40625-0.35547-0.28125-0.625-0.73828-0.8125-1.375l-0.625-2.2656c-0.13672-0.46875-0.29688-0.78125-0.48438-0.9375-0.1875-0.16406-0.54297-0.25-1.0625-0.25h-4.1719l-1.9844 7.0625h1.75c0.17578 0 0.42578-0.12891 0.75-0.39062l1.3438-1.1875c0.39453-0.34375 0.73828-0.59375 1.0312-0.75 0.28906-0.16406 0.64844-0.25 1.0781-0.25 0.47656 0 0.86719 0.125 1.1719 0.375 0.30078 0.25 0.45312 0.57812 0.45312 0.98438 0 0.10547-0.027344 0.26172-0.078125 0.46875l-1.625 5.5156c-0.15625 0.58594-0.42969 1.0156-0.8125 1.2969-0.38672 0.27344-0.80469 0.40625-1.25 0.40625-0.74219 0-1.2969-0.37891-1.6719-1.1406l-0.67188-1.3906c-0.1875-0.39453-0.48047-0.59375-0.875-0.59375h-1.5469l-2.3438 8.4062h3.5c0.5 0 0.94141-0.097656 1.3281-0.29688 0.38281-0.19531 0.80078-0.54688 1.25-1.0469l2.375-2.625c0.42578-0.44531 0.82812-0.76953 1.2031-0.96875 0.38281-0.19531 0.85938-0.29688 1.4219-0.29688 0.58203 0 1.0547 0.13672 1.4219 0.40625 0.375 0.26172 0.5625 0.65234 0.5625 1.1719 0 0.21875-0.042969 0.47656-0.125 0.76562l-1.1406 4c-0.29297 1.0117-0.71875 1.7148-1.2812 2.1094-0.55469 0.39844-1.3594 0.59375-2.4219 0.59375h-18.922c-0.5625 0-0.99219-0.09375-1.2969-0.28125-0.30078-0.1875-0.45312-0.4375-0.45312-0.75 0-0.15625 0.042969-0.32812 0.125-0.51562 0.10547-0.28906 0.27734-0.51562 0.51562-0.67188 0.23047-0.15625 0.375-0.25 0.4375-0.28125 0.41406-0.25781 0.75391-0.53125 1.0156-0.8125 0.26953-0.28125 0.5-0.73828 0.6875-1.375l4.875-17.094c0.10156-0.34375 0.15625-0.66016 0.15625-0.95312 0-0.32031-0.046875-0.58594-0.14062-0.79688-0.085937-0.21875-0.21875-0.44141-0.40625-0.67188-0.24219-0.34375-0.35938-0.625-0.35938-0.84375 0-0.070313 0.023438-0.21875 0.078125-0.4375 0.10156-0.34375 0.33594-0.58594 0.70312-0.73438 0.375-0.14453 0.92188-0.21875 1.6406-0.21875z"/>
</g>
</g>
<g fill="#046db5">
<g transform="translate(45.86 193.41)">
<path d="m20.922-21c1.1016 0 2.0078 0.38281 2.7188 1.1406 0.71875 0.75 1.0781 1.6836 1.0781 2.7969 0 0.5-0.078125 1.0156-0.23438 1.5469-0.29297 0.89844-0.72656 1.5742-1.2969 2.0312-0.5625 0.44922-1.2031 0.67188-1.9219 0.67188-0.84375 0-1.6641-0.28125-2.4531-0.84375l-1.9844 1.875c0.65625 1.793 1.1953 3.125 1.625 4 0.42578 0.875 0.76953 1.4375 1.0312 1.6875 0.26953 0.25 0.57812 0.375 0.92188 0.375 0.17578 0 0.41016-0.070312 0.70312-0.21875 0.28906-0.14453 0.51562-0.21875 0.67188-0.21875 0.16406 0 0.30078 0.074219 0.40625 0.21875 0.10156 0.14844 0.15625 0.33984 0.15625 0.57812 0 0.13672-0.027344 0.33594-0.078125 0.59375-0.21094 0.90625-0.65625 1.7305-1.3438 2.4688-0.6875 0.74219-1.5117 1.3281-2.4688 1.7656-0.94922 0.4375-1.9141 0.65625-2.8906 0.65625-0.98047 0-1.8281-0.125-2.5469-0.375-0.71094-0.25781-1.4375-0.82031-2.1875-1.6875-0.74219-0.875-1.4922-2.1875-2.25-3.9375l-1 2.2188c-0.63672 1.4062-1.2773 2.3984-1.9219 2.9688-0.64844 0.5625-1.4062 0.84375-2.2812 0.84375-1.168 0-2.1211-0.36719-2.8594-1.1094-0.73828-0.73828-1.1094-1.6758-1.1094-2.8125 0-0.53125 0.078125-1.0469 0.23438-1.5469 0.29297-0.90625 0.71875-1.582 1.2812-2.0312 0.57031-0.44531 1.2188-0.67188 1.9375-0.67188 0.84375 0 1.6602 0.27734 2.4531 0.82812l1.9844-1.8594c-0.63672-1.8008-1.1523-3.1445-1.5469-4.0312-0.39844-0.88281-0.73438-1.4531-1.0156-1.7031-0.27344-0.25-0.57812-0.375-0.92188-0.375-0.1875 0-0.42188 0.074219-0.70312 0.21875-0.27344 0.14844-0.49219 0.21875-0.65625 0.21875-0.39844 0-0.59375-0.28125-0.59375-0.84375 0-0.070312 0.023437-0.24219 0.078125-0.51562 0.34375-1.375 1.1758-2.5352 2.5-3.4844 1.3203-0.95703 2.7383-1.4375 4.25-1.4375 0.95703 0 1.7969 0.14844 2.5156 0.4375 0.72656 0.29297 1.457 0.875 2.1875 1.75 0.72656 0.875 1.4609 2.1484 2.2031 3.8125l1.1094-2.5c0.58203-1.2695 1.1914-2.1719 1.8281-2.7031 0.63281-0.53125 1.4297-0.79688 2.3906-0.79688z"/>
</g>
</g>
<g fill="#046db5">
<g transform="translate(68.593 193.41)">
<path d="m20.75-21.156c2.0391 0 3.6445 0.67969 4.8125 2.0312 1.1641 1.3438 1.75 3.1836 1.75 5.5156 0 1.2422-0.17969 2.5469-0.53125 3.9219-0.79297 3.2812-2.2734 5.7773-4.4375 7.4844-2.168 1.7109-4.6836 2.5625-7.5469 2.5625-1.8242 0-3.4062-0.38281-4.75-1.1562l-1.2812 4.25c-0.10547 0.28906-0.15625 0.56641-0.15625 0.82812 0 0.28906 0.066406 0.53516 0.20312 0.73438 0.13281 0.19531 0.30469 0.39062 0.51562 0.57812 0.20703 0.20703 0.34375 0.37891 0.40625 0.51562 0.070313 0.13281 0.082031 0.29688 0.03125 0.48438-0.10547 0.34375-0.35938 0.58594-0.76562 0.73438-0.39844 0.14453-1 0.21875-1.8125 0.21875h-9.0938c-0.6875 0-1.1797-0.11719-1.4844-0.34375-0.30078-0.23047-0.39062-0.51562-0.26562-0.85938 0.054688-0.21094 0.14844-0.38281 0.28125-0.51562 0.13672-0.125 0.32422-0.24219 0.5625-0.34375 0.39844-0.27344 0.71484-0.54688 0.95312-0.82812 0.23047-0.27344 0.4375-0.71484 0.625-1.3281l5.7969-19c0.082031-0.23828 0.125-0.4375 0.125-0.59375 0-0.28906-0.070312-0.51953-0.20312-0.6875-0.13672-0.17578-0.33594-0.35938-0.59375-0.54688-0.26172-0.20703-0.44922-0.39062-0.5625-0.54688-0.10547-0.16406-0.11719-0.37891-0.03125-0.64062 0.15625-0.61328 0.98828-1.1484 2.5-1.6094 1.5078-0.46875 3.082-0.70312 4.7188-0.70312 1.1641 0 2.125 0.29297 2.875 0.875 0.75781 0.58594 1.1914 1.3906 1.2969 2.4219 1.8008-2.3008 3.8203-3.4531 6.0625-3.4531zm-4.5938 11.797c0.63281-2.3516 0.95312-3.9844 0.95312-4.8906 0-0.55078-0.089844-0.91016-0.26562-1.0781-0.16797-0.17578-0.41406-0.26562-0.73438-0.26562-0.24219 0-0.54688 0.11719-0.92188 0.34375-0.36719 0.21875-0.73047 0.59375-1.0938 1.125l-3.1406 10.391c0.32031 0.32422 0.70703 0.48438 1.1562 0.48438 0.70703 0 1.3828-0.39844 2.0312-1.2031 0.65625-0.8125 1.3281-2.4453 2.0156-4.9062z"/>
</g>
</g>
<g fill="#046db5">
<g transform="translate(95.017 193.41)">
<path d="m13.453-21.188c3.3633 0 5.7969 0.53906 7.2969 1.6094 1.5078 1.0625 2.2656 2.4297 2.2656 4.0938 0 0.51172-0.054687 0.97656-0.15625 1.3906-0.39844 1.75-1.5 3.0078-3.3125 3.7656-1.8125 0.75-3.9492 1.125-6.4062 1.125-1.25 0-2.418-0.082031-3.5-0.25-0.023437 1.3867 0.34766 2.3555 1.1094 2.9062 0.76953 0.55469 1.8438 0.82812 3.2188 0.82812 0.63281 0 1.2422-0.070312 1.8281-0.21875 0.58203-0.14453 1.3203-0.36328 2.2188-0.65625 0.73828-0.25781 1.2422-0.39062 1.5156-0.39062 0.28906 0 0.4375 0.17188 0.4375 0.51562 0.019531 0.92969-0.32812 1.9023-1.0469 2.9219-0.71094 1.0117-1.7656 1.875-3.1719 2.5938-1.3984 0.71875-3.0898 1.0781-5.0781 1.0781-2.9375 0-5.3438-0.73828-7.2188-2.2188-1.875-1.4883-2.8125-3.6484-2.8125-6.4844 0-0.78906 0.10156-1.7109 0.3125-2.7656 0.65625-3.2578 2.1016-5.7109 4.3438-7.3594 2.2383-1.6562 4.957-2.4844 8.1562-2.4844zm-3.5312 9.3594c0.10156 0.03125 0.25 0.046875 0.4375 0.046875 1.1133 0 1.957-0.51562 2.5312-1.5469 0.58203-1.0312 0.86328-2.1797 0.84375-3.4531-0.03125-0.75-0.24609-1.125-0.64062-1.125-0.29297 0-0.63672 0.23438-1.0312 0.70312-0.39844 0.46094-0.78906 1.1523-1.1719 2.0781-0.38672 0.92969-0.71094 2.0273-0.96875 3.2969z"/>
</g>
</g>
<g fill="#046db5">
<g transform="translate(116.24 193.41)">
<path d="m24.562-5.4844c-0.054688 0.11719-0.078125 0.27734-0.078125 0.48438 0 0.1875 0.046875 0.33594 0.14062 0.4375 0.09375 0.10547 0.21875 0.15625 0.375 0.15625 0.32031 0 0.59375-0.13281 0.8125-0.40625 0.22656-0.28125 0.37891-0.42188 0.45312-0.42188 0.13281 0 0.23828 0.089844 0.3125 0.26562 0.082031 0.16797 0.125 0.37109 0.125 0.60938 0.03125 0.76172-0.21875 1.5078-0.75 2.2344-0.53125 0.73047-1.3086 1.3281-2.3281 1.7969-1.0117 0.45703-2.2305 0.6875-3.6562 0.6875-1.75 0-3.1406-0.39844-4.1719-1.2031-1.0312-0.8125-1.5625-1.8945-1.5938-3.25 0-0.97656 0.23828-2.0703 0.71875-3.2812l2.1875-5.7188c0.125-0.34375 0.1875-0.625 0.1875-0.84375 0-0.34375-0.11719-0.61328-0.34375-0.8125-0.21875-0.19531-0.48438-0.29688-0.79688-0.29688-0.58594 0-1.1406 0.27344-1.6719 0.8125-0.53125 0.54297-0.91797 1.2148-1.1562 2.0156l-2.4531 8.0938c-0.10547 0.29297-0.15625 0.57031-0.15625 0.82812 0 0.32422 0.0625 0.58594 0.1875 0.78125 0.13281 0.19922 0.32031 0.40234 0.5625 0.60938 0.1875 0.15625 0.31641 0.30469 0.39062 0.4375 0.082031 0.13672 0.097656 0.29688 0.046875 0.48438-0.10547 0.34375-0.35547 0.59375-0.75 0.75-0.39844 0.15625-1.0234 0.23438-1.875 0.23438h-9.0469c-0.6875 0-1.1797-0.10938-1.4844-0.32812-0.30078-0.22656-0.41406-0.53125-0.34375-0.90625 0.11719-0.3125 0.39844-0.58594 0.84375-0.82812 0.39844-0.20703 0.72656-0.45703 0.98438-0.75 0.26953-0.28906 0.49219-0.75391 0.67188-1.3906l3.5312-11.469c0.0625-0.13281 0.09375-0.32031 0.09375-0.5625 0-0.28906-0.0625-0.51562-0.1875-0.67188-0.11719-0.15625-0.30859-0.35156-0.57812-0.59375-0.26172-0.20703-0.44531-0.39062-0.54688-0.54688-0.10547-0.16406-0.12109-0.37891-0.046875-0.64062 0.15625-0.61328 0.98828-1.1484 2.5-1.6094 1.5078-0.46875 3.082-0.70312 4.7188-0.70312 1.3203 0 2.3672 0.36719 3.1406 1.0938 0.76953 0.73047 1.1133 1.7461 1.0312 3.0469 1.082-1.5625 2.2344-2.6406 3.4531-3.2344 1.2188-0.60156 2.5391-0.90625 3.9688-0.90625 1.6133 0 2.9141 0.49219 3.9062 1.4688 1 0.98047 1.5 2.25 1.5 3.8125 0 0.82422-0.13672 1.6328-0.40625 2.4219z"/>
</g>
</g>
<g fill="#046db5">
<g transform="translate(143.66 193.41)">
<path d="m13.062-21.359c2.1875 0 4.082 0.20312 5.6875 0.60938 1.6016 0.39844 2.832 0.95312 3.6875 1.6719 0.86328 0.71094 1.2969 1.5117 1.2969 2.4062 0 0.92969-0.36719 1.6836-1.0938 2.2656-0.73047 0.58594-1.7422 0.875-3.0312 0.875-1.3242 0-2.4453-0.32812-3.3594-0.98438-0.91797-0.66406-1.375-1.5039-1.375-2.5156 0-0.34375 0.054688-0.67188 0.17188-0.98438-0.48047-0.13281-0.90625-0.20312-1.2812-0.20312-0.65625 0-1.2031 0.16406-1.6406 0.48438-0.4375 0.3125-0.64062 0.76172-0.60938 1.3438 0 0.6875 0.34375 1.2734 1.0312 1.75 0.6875 0.46875 1.7969 1.0625 3.3281 1.7812 1.3203 0.58594 2.4102 1.1211 3.2656 1.6094 0.86328 0.49219 1.5938 1.1055 2.1875 1.8438 0.59375 0.74219 0.89062 1.6172 0.89062 2.625 0 0.21094-0.054688 0.60547-0.15625 1.1875-0.41797 1.7734-1.5938 3.1719-3.5312 4.2031-1.9297 1.0312-4.4688 1.5469-7.625 1.5469-3.543 0-6.3555-0.47266-8.4375-1.4219-2.0742-0.95703-3.1094-2.2695-3.1094-3.9375 0-1.1328 0.34375-1.9922 1.0312-2.5781 0.6875-0.58203 1.6016-0.875 2.75-0.875 1.3203 0 2.4531 0.41406 3.3906 1.2344 0.9375 0.82422 1.4062 1.8711 1.4062 3.1406 0 0.34375-0.042969 0.69922-0.125 1.0625 0.63281 0.16797 1.2422 0.25 1.8281 0.25 0.6875 0 1.2539-0.1875 1.7031-0.5625 0.45703-0.375 0.6875-0.89062 0.6875-1.5469-0.03125-0.61328-0.33984-1.1328-0.92188-1.5625-0.58594-0.4375-1.5117-0.96094-2.7812-1.5781-1.1875-0.55078-2.168-1.0703-2.9375-1.5625-0.76172-0.48828-1.4141-1.1016-1.9531-1.8438-0.54297-0.73828-0.8125-1.6133-0.8125-2.625 0-2.1641 0.90625-3.8906 2.7188-5.1719 1.8125-1.2891 4.3828-1.9375 7.7188-1.9375z"/>
</g>
</g>
<g fill="#046db5">
<g transform="translate(166.19 193.41)">
<path d="m13.453-21.188c3.3633 0 5.7969 0.53906 7.2969 1.6094 1.5078 1.0625 2.2656 2.4297 2.2656 4.0938 0 0.51172-0.054687 0.97656-0.15625 1.3906-0.39844 1.75-1.5 3.0078-3.3125 3.7656-1.8125 0.75-3.9492 1.125-6.4062 1.125-1.25 0-2.418-0.082031-3.5-0.25-0.023437 1.3867 0.34766 2.3555 1.1094 2.9062 0.76953 0.55469 1.8438 0.82812 3.2188 0.82812 0.63281 0 1.2422-0.070312 1.8281-0.21875 0.58203-0.14453 1.3203-0.36328 2.2188-0.65625 0.73828-0.25781 1.2422-0.39062 1.5156-0.39062 0.28906 0 0.4375 0.17188 0.4375 0.51562 0.019531 0.92969-0.32812 1.9023-1.0469 2.9219-0.71094 1.0117-1.7656 1.875-3.1719 2.5938-1.3984 0.71875-3.0898 1.0781-5.0781 1.0781-2.9375 0-5.3438-0.73828-7.2188-2.2188-1.875-1.4883-2.8125-3.6484-2.8125-6.4844 0-0.78906 0.10156-1.7109 0.3125-2.7656 0.65625-3.2578 2.1016-5.7109 4.3438-7.3594 2.2383-1.6562 4.957-2.4844 8.1562-2.4844zm-3.5312 9.3594c0.10156 0.03125 0.25 0.046875 0.4375 0.046875 1.1133 0 1.957-0.51562 2.5312-1.5469 0.58203-1.0312 0.86328-2.1797 0.84375-3.4531-0.03125-0.75-0.24609-1.125-0.64062-1.125-0.29297 0-0.63672 0.23438-1.0312 0.70312-0.39844 0.46094-0.78906 1.1523-1.1719 2.0781-0.38672 0.92969-0.71094 2.0273-0.96875 3.2969z"/>
</g>
</g>
<g fill="#046db5">
<g transform="translate(187.42 193.41)"/>
</g>
<g fill="#046db5">
<g transform="translate(194.36 193.41)">
<path d="m42.625-26.438c0.55078 0 0.97656 0.089844 1.2812 0.26562 0.3125 0.16797 0.46875 0.41406 0.46875 0.73438 0 0.13672-0.042969 0.30859-0.125 0.51562-0.085938 0.24219-0.19922 0.42188-0.34375 0.54688-0.13672 0.11719-0.35156 0.26172-0.64062 0.4375-0.42969 0.24219-0.76562 0.50781-1.0156 0.79688-0.25 0.29297-0.46875 0.74609-0.65625 1.3594l-4.8438 17.062c-0.10547 0.34375-0.15625 0.67188-0.15625 0.98438 0 0.29297 0.046875 0.53906 0.14062 0.73438 0.09375 0.19922 0.21875 0.43359 0.375 0.70312 0.10156 0.125 0.19141 0.26172 0.26562 0.40625 0.082031 0.14844 0.125 0.30469 0.125 0.46875 0 0.054687-0.027344 0.18359-0.078125 0.39062-0.10547 0.34375-0.35156 0.59375-0.73438 0.75-0.38672 0.15625-0.93359 0.23438-1.6406 0.23438h-9.3281c-0.55469 0-0.98438-0.085937-1.2969-0.26562-0.30469-0.1875-0.45312-0.44141-0.45312-0.76562 0-0.15625 0.039062-0.32812 0.125-0.51562 0.070312-0.17578 0.17969-0.33594 0.32812-0.48438 0.14453-0.14453 0.27344-0.25 0.39062-0.3125 0.125-0.070313 0.21094-0.13281 0.26562-0.1875 0.42578-0.23828 0.76953-0.50391 1.0312-0.79688 0.26953-0.28906 0.49219-0.73828 0.67188-1.3438l3.0312-10.719-10.281 12.734c-0.85547 1.0312-1.543 1.7422-2.0625 2.125-0.51172 0.38672-1.0938 0.57812-1.75 0.57812-0.63672 0-1.1367-0.20312-1.5-0.60938-0.35547-0.41406-0.67969-1.1133-0.96875-2.0938l-3.7188-12.266-2.9375 10.281c-0.11719 0.34375-0.17188 0.67969-0.17188 1 0 0.3125 0.046875 0.57812 0.14062 0.79688 0.09375 0.21094 0.23438 0.43359 0.42188 0.67188 0.23828 0.34375 0.35938 0.62109 0.35938 0.82812 0 0.054687-0.027344 0.1875-0.078125 0.40625-0.10547 0.36719-0.34375 0.62109-0.71875 0.76562-0.36719 0.14844-0.92188 0.21875-1.6719 0.21875h-3.2812c-0.5625 0-0.99609-0.09375-1.2969-0.28125-0.30078-0.1875-0.45312-0.4375-0.45312-0.75 0-0.15625 0.039062-0.32812 0.10938-0.51562 0.11328-0.28906 0.28516-0.51562 0.51562-0.67188 0.23828-0.15625 0.38281-0.25 0.4375-0.28125 0.42578-0.25781 0.76953-0.53125 1.0312-0.8125 0.26953-0.28125 0.5-0.73828 0.6875-1.375l4.8438-17.141-0.64062-2.1094c-0.13672-0.39453-0.20312-0.77344-0.20312-1.1406 0-0.47656 0.14844-0.82031 0.45312-1.0312 0.3125-0.21875 0.78516-0.32812 1.4219-0.32812h6.1406c0.78906 0 1.3789 0.17188 1.7656 0.51562 0.38281 0.34375 0.69531 0.94531 0.9375 1.7969l3.9688 13.172 10.75-13.375c0.6875-0.84375 1.3594-1.4062 2.0156-1.6875 0.66406-0.28125 1.5391-0.42188 2.625-0.42188z"/>
</g>
</g>
<g fill="#046db5">
<g transform="translate(234.43 193.41)">
<path d="m14.172-21c3.0391 0 5.4727 0.5625 7.2969 1.6875 1.8203 1.125 2.7344 2.8398 2.7344 5.1406 0 0.875-0.15625 1.8711-0.46875 2.9844l-1.625 5.4688c-0.03125 0.10547-0.046875 0.24219-0.046875 0.40625 0 0.41797 0.17188 0.625 0.51562 0.625 0.32031 0 0.59375-0.13281 0.8125-0.40625 0.22656-0.28125 0.38281-0.42188 0.46875-0.42188 0.125 0 0.23438 0.09375 0.32812 0.28125s0.14062 0.39844 0.14062 0.625c0.03125 0.71875-0.24219 1.4492-0.8125 2.1875-0.57422 0.74219-1.3398 1.3516-2.2969 1.8281-0.94922 0.48047-1.9922 0.71875-3.125 0.71875-1.375 0-2.5547-0.25-3.5312-0.75-0.98047-0.50781-1.6523-1.2539-2.0156-2.2344-0.80469 0.96094-1.7461 1.6992-2.8281 2.2188-1.0859 0.51172-2.2461 0.76562-3.4844 0.76562-1.4062 0-2.5898-0.26953-3.5469-0.8125-0.94922-0.55078-1.6562-1.2539-2.125-2.1094-0.46094-0.86328-0.6875-1.7695-0.6875-2.7188 0-0.42578 0.042969-0.83594 0.125-1.2344 0.42578-1.8203 1.3438-3.1953 2.75-4.125 1.4141-0.92578 3.1016-1.3906 5.0625-1.3906 2.1953 0 4.3516 0.34375 6.4688 1.0312l1-2.6094c0.34375-1.1133 0.51562-1.9766 0.51562-2.5938-0.03125-0.63281-0.24609-1.1094-0.64062-1.4219-0.39844-0.3125-1.0078-0.46875-1.8281-0.46875 0.16406 0.41797 0.25 0.85156 0.25 1.2969 0 0.98047-0.375 1.8281-1.125 2.5469-0.74219 0.71094-1.7969 1.0625-3.1719 1.0625-1.293 0-2.3047-0.28125-3.0312-0.84375-0.73047-0.57031-1.0938-1.2812-1.0938-2.125 0-1.3203 0.73828-2.4219 2.2188-3.2969 1.4883-0.875 3.7539-1.3125 6.7969-1.3125zm-2.2188 12.031c-0.75 0-1.3555 0.28906-1.8125 0.85938-0.46094 0.5625-0.6875 1.1797-0.6875 1.8438 0 0.41797 0.097656 0.76172 0.29688 1.0312 0.19531 0.26172 0.47656 0.39062 0.84375 0.39062 0.34375 0 0.71875-0.13281 1.125-0.40625 0.41406-0.28125 0.71875-0.70312 0.90625-1.2656l0.82812-2.3281c-0.44922-0.082031-0.94922-0.125-1.5-0.125z"/>
</g>
</g>
<g fill="#046db5">
<g transform="translate(259.39 193.41)">
<path d="m24.562-5.4844c-0.054688 0.11719-0.078125 0.27734-0.078125 0.48438 0 0.1875 0.046875 0.33594 0.14062 0.4375 0.09375 0.10547 0.21875 0.15625 0.375 0.15625 0.32031 0 0.59375-0.13281 0.8125-0.40625 0.22656-0.28125 0.37891-0.42188 0.45312-0.42188 0.13281 0 0.23828 0.089844 0.3125 0.26562 0.082031 0.16797 0.125 0.37109 0.125 0.60938 0.03125 0.76172-0.21875 1.5078-0.75 2.2344-0.53125 0.73047-1.3086 1.3281-2.3281 1.7969-1.0117 0.45703-2.2305 0.6875-3.6562 0.6875-1.75 0-3.1406-0.39844-4.1719-1.2031-1.0312-0.8125-1.5625-1.8945-1.5938-3.25 0-0.97656 0.23828-2.0703 0.71875-3.2812l2.1875-5.7188c0.125-0.34375 0.1875-0.625 0.1875-0.84375 0-0.34375-0.11719-0.61328-0.34375-0.8125-0.21875-0.19531-0.48438-0.29688-0.79688-0.29688-0.58594 0-1.1406 0.27344-1.6719 0.8125-0.53125 0.54297-0.91797 1.2148-1.1562 2.0156l-2.4531 8.0938c-0.10547 0.29297-0.15625 0.57031-0.15625 0.82812 0 0.32422 0.0625 0.58594 0.1875 0.78125 0.13281 0.19922 0.32031 0.40234 0.5625 0.60938 0.1875 0.15625 0.31641 0.30469 0.39062 0.4375 0.082031 0.13672 0.097656 0.29688 0.046875 0.48438-0.10547 0.34375-0.35547 0.59375-0.75 0.75-0.39844 0.15625-1.0234 0.23438-1.875 0.23438h-9.0469c-0.6875 0-1.1797-0.10938-1.4844-0.32812-0.30078-0.22656-0.41406-0.53125-0.34375-0.90625 0.11719-0.3125 0.39844-0.58594 0.84375-0.82812 0.39844-0.20703 0.72656-0.45703 0.98438-0.75 0.26953-0.28906 0.49219-0.75391 0.67188-1.3906l3.5312-11.469c0.0625-0.13281 0.09375-0.32031 0.09375-0.5625 0-0.28906-0.0625-0.51562-0.1875-0.67188-0.11719-0.15625-0.30859-0.35156-0.57812-0.59375-0.26172-0.20703-0.44531-0.39062-0.54688-0.54688-0.10547-0.16406-0.12109-0.37891-0.046875-0.64062 0.15625-0.61328 0.98828-1.1484 2.5-1.6094 1.5078-0.46875 3.082-0.70312 4.7188-0.70312 1.3203 0 2.3672 0.36719 3.1406 1.0938 0.76953 0.73047 1.1133 1.7461 1.0312 3.0469 1.082-1.5625 2.2344-2.6406 3.4531-3.2344 1.2188-0.60156 2.5391-0.90625 3.9688-0.90625 1.6133 0 2.9141 0.49219 3.9062 1.4688 1 0.98047 1.5 2.25 1.5 3.8125 0 0.82422-0.13672 1.6328-0.40625 2.4219z"/>
</g>
</g>
<g fill="#046db5">
<g transform="translate(286.81 193.41)">
<path d="m14.172-21c3.0391 0 5.4727 0.5625 7.2969 1.6875 1.8203 1.125 2.7344 2.8398 2.7344 5.1406 0 0.875-0.15625 1.8711-0.46875 2.9844l-1.625 5.4688c-0.03125 0.10547-0.046875 0.24219-0.046875 0.40625 0 0.41797 0.17188 0.625 0.51562 0.625 0.32031 0 0.59375-0.13281 0.8125-0.40625 0.22656-0.28125 0.38281-0.42188 0.46875-0.42188 0.125 0 0.23438 0.09375 0.32812 0.28125s0.14062 0.39844 0.14062 0.625c0.03125 0.71875-0.24219 1.4492-0.8125 2.1875-0.57422 0.74219-1.3398 1.3516-2.2969 1.8281-0.94922 0.48047-1.9922 0.71875-3.125 0.71875-1.375 0-2.5547-0.25-3.5312-0.75-0.98047-0.50781-1.6523-1.2539-2.0156-2.2344-0.80469 0.96094-1.7461 1.6992-2.8281 2.2188-1.0859 0.51172-2.2461 0.76562-3.4844 0.76562-1.4062 0-2.5898-0.26953-3.5469-0.8125-0.94922-0.55078-1.6562-1.2539-2.125-2.1094-0.46094-0.86328-0.6875-1.7695-0.6875-2.7188 0-0.42578 0.042969-0.83594 0.125-1.2344 0.42578-1.8203 1.3438-3.1953 2.75-4.125 1.4141-0.92578 3.1016-1.3906 5.0625-1.3906 2.1953 0 4.3516 0.34375 6.4688 1.0312l1-2.6094c0.34375-1.1133 0.51562-1.9766 0.51562-2.5938-0.03125-0.63281-0.24609-1.1094-0.64062-1.4219-0.39844-0.3125-1.0078-0.46875-1.8281-0.46875 0.16406 0.41797 0.25 0.85156 0.25 1.2969 0 0.98047-0.375 1.8281-1.125 2.5469-0.74219 0.71094-1.7969 1.0625-3.1719 1.0625-1.293 0-2.3047-0.28125-3.0312-0.84375-0.73047-0.57031-1.0938-1.2812-1.0938-2.125 0-1.3203 0.73828-2.4219 2.2188-3.2969 1.4883-0.875 3.7539-1.3125 6.7969-1.3125zm-2.2188 12.031c-0.75 0-1.3555 0.28906-1.8125 0.85938-0.46094 0.5625-0.6875 1.1797-0.6875 1.8438 0 0.41797 0.097656 0.76172 0.29688 1.0312 0.19531 0.26172 0.47656 0.39062 0.84375 0.39062 0.34375 0 0.71875-0.13281 1.125-0.40625 0.41406-0.28125 0.71875-0.70312 0.90625-1.2656l0.82812-2.3281c-0.44922-0.082031-0.94922-0.125-1.5-0.125z"/>
</g>
</g>
<g fill="#046db5">
<g transform="translate(311.76 193.41)">
<path d="m24.047-27.469c0.85156 0 1.6797 0.18359 2.4844 0.54688 0.80078 0.35547 1.4609 0.84375 1.9844 1.4688 0.51953 0.61719 0.78125 1.2812 0.78125 2 0 1.5625-1.0625 2.3438-3.1875 2.3438-0.60547 0-1.0742-0.046875-1.4062-0.14062-0.33594-0.09375-0.72656-0.24219-1.1719-0.45312-0.074219 0.17969-0.10938 0.4375-0.10938 0.78125 0 0.42969 0.070313 0.93359 0.21875 1.5156 0.14453 0.58594 0.32031 1.125 0.53125 1.625 0.55078 0.82422 0.82812 1.8047 0.82812 2.9375 0 0.5-0.070312 1.1094-0.20312 1.8281-0.3125 1.375-1.0078 2.6328-2.0781 3.7656-1.0742 1.1367-2.4492 2.0312-4.125 2.6875-1.6797 0.64844-3.5234 0.96875-5.5312 0.96875-1.543 0-2.9844-0.10156-4.3281-0.3125-0.39844 0.34375-0.59375 0.76562-0.59375 1.2656 0 0.34375 0.15625 0.63281 0.46875 0.85938 0.32031 0.21875 0.85156 0.32812 1.5938 0.32812h5.9531c2.0312 0 3.6133 0.35547 4.75 1.0625 1.1445 0.69922 1.7188 1.6953 1.7188 2.9844 0 0.47656-0.078125 0.96875-0.23438 1.4688-0.32422 1.0312-1.0469 1.9883-2.1719 2.875-1.125 0.88281-2.7109 1.6016-4.75 2.1562-2.0312 0.5625-4.5 0.84375-7.4062 0.84375-2.5938 0-4.793-0.22656-6.5938-0.67188-1.8008-0.44922-3.1445-1.0625-4.0312-1.8438-0.88281-0.78125-1.3281-1.6523-1.3281-2.6094 0-0.21094 0.054687-0.52734 0.15625-0.95312 0.24219-0.76172 0.77734-1.3867 1.6094-1.875 0.83594-0.48828 2.2031-0.8125 4.1094-0.96875-0.63672-0.61328-0.95312-1.3438-0.95312-2.1875 0-0.28906 0.039062-0.59766 0.125-0.92188 0.41406-1.375 1.6562-2.3906 3.7188-3.0469-1.9805-1.082-2.9688-2.6719-2.9688-4.7656 0-0.58203 0.078125-1.1914 0.23438-1.8281 0.32031-1.375 1.0234-2.625 2.1094-3.75 1.082-1.125 2.4688-2.0156 4.1562-2.6719 1.6953-0.66406 3.5508-1 5.5625-1 3.1445 0 5.6172 0.41406 7.4219 1.2344-0.39844-0.60156-0.71094-1.2539-0.9375-1.9531-0.21875-0.70703-0.32812-1.3516-0.32812-1.9375 0-1.0078 0.32031-1.8672 0.96875-2.5781 0.64453-0.71875 1.6289-1.0781 2.9531-1.0781zm-8.6094 14.094c0.42578-1.3516 0.64062-2.3828 0.64062-3.0938 0-0.89453-0.38672-1.3438-1.1562-1.3438-0.65625 0-1.2305 0.32422-1.7188 0.96875-0.49219 0.64844-0.99219 1.8047-1.5 3.4688-0.41797 1.375-0.625 2.4219-0.625 3.1406 0 0.875 0.36719 1.3125 1.1094 1.3125 0.65625 0 1.2344-0.32812 1.7344-0.98438 0.50781-0.66406 1.0156-1.8203 1.5156-3.4688zm-7.8906 13.938c-0.75 0-1.4297-0.042969-2.0312-0.125-0.3125 0.39453-0.46875 0.92578-0.46875 1.5938 0.019531 0.65625 0.28516 1.1289 0.79688 1.4219 0.51953 0.28906 1.3203 0.4375 2.4062 0.4375 1.3203 0 2.3984-0.19922 3.2344-0.59375 0.83203-0.39844 1.25-0.96484 1.25-1.7031 0-0.32422-0.12109-0.57812-0.35938-0.76562-0.23047-0.17969-0.57422-0.26562-1.0312-0.26562z"/>
</g>
</g>
<g fill="#046db5">
<g transform="translate(335.96 193.41)">
<path d="m13.453-21.188c3.3633 0 5.7969 0.53906 7.2969 1.6094 1.5078 1.0625 2.2656 2.4297 2.2656 4.0938 0 0.51172-0.054687 0.97656-0.15625 1.3906-0.39844 1.75-1.5 3.0078-3.3125 3.7656-1.8125 0.75-3.9492 1.125-6.4062 1.125-1.25 0-2.418-0.082031-3.5-0.25-0.023437 1.3867 0.34766 2.3555 1.1094 2.9062 0.76953 0.55469 1.8438 0.82812 3.2188 0.82812 0.63281 0 1.2422-0.070312 1.8281-0.21875 0.58203-0.14453 1.3203-0.36328 2.2188-0.65625 0.73828-0.25781 1.2422-0.39062 1.5156-0.39062 0.28906 0 0.4375 0.17188 0.4375 0.51562 0.019531 0.92969-0.32812 1.9023-1.0469 2.9219-0.71094 1.0117-1.7656 1.875-3.1719 2.5938-1.3984 0.71875-3.0898 1.0781-5.0781 1.0781-2.9375 0-5.3438-0.73828-7.2188-2.2188-1.875-1.4883-2.8125-3.6484-2.8125-6.4844 0-0.78906 0.10156-1.7109 0.3125-2.7656 0.65625-3.2578 2.1016-5.7109 4.3438-7.3594 2.2383-1.6562 4.957-2.4844 8.1562-2.4844zm-3.5312 9.3594c0.10156 0.03125 0.25 0.046875 0.4375 0.046875 1.1133 0 1.957-0.51562 2.5312-1.5469 0.58203-1.0312 0.86328-2.1797 0.84375-3.4531-0.03125-0.75-0.24609-1.125-0.64062-1.125-0.29297 0-0.63672 0.23438-1.0312 0.70312-0.39844 0.46094-0.78906 1.1523-1.1719 2.0781-0.38672 0.92969-0.71094 2.0273-0.96875 3.2969z"/>
</g>
</g>
<g fill="#046db5">
<g transform="translate(357.19 193.41)">
<path d="m19.484-21c1.4766 0 2.6602 0.45312 3.5469 1.3594 0.89453 0.89844 1.3438 2.0078 1.3438 3.3281 0 0.5-0.058594 0.96484-0.17188 1.3906-0.26172 1.0859-0.76172 1.918-1.5 2.5-0.74219 0.58594-1.625 0.875-2.6562 0.875-1.0117 0-1.7773-0.23828-2.2969-0.71875-0.51172-0.47656-0.96484-1.1133-1.3594-1.9062-0.21094-0.44531-0.40625-0.77344-0.59375-0.98438-0.1875-0.21875-0.40234-0.32812-0.64062-0.32812-0.26172 0-0.49219 0.10938-0.6875 0.32812-0.19922 0.21094-0.375 0.57812-0.53125 1.1094l-3.0625 9.9219c-0.054688 0.13672-0.078125 0.33594-0.078125 0.59375 0 0.34375 0.097656 0.63281 0.29688 0.85938 0.19531 0.21875 0.46875 0.43359 0.8125 0.64062 0.3125 0.21875 0.51953 0.39844 0.625 0.53125 0.11328 0.125 0.15625 0.29688 0.125 0.51562-0.054688 0.34375-0.24609 0.59375-0.57812 0.75-0.32422 0.15625-0.88672 0.23438-1.6875 0.23438h-10.156c-0.6875 0-1.1797-0.10938-1.4844-0.32812-0.30078-0.22656-0.41406-0.53125-0.34375-0.90625 0.11719-0.3125 0.39844-0.58594 0.84375-0.82812 0.39844-0.20703 0.72656-0.45703 0.98438-0.75 0.26953-0.28906 0.49219-0.75391 0.67188-1.3906l3.5312-11.469c0.0625-0.13281 0.09375-0.32031 0.09375-0.5625 0-0.28906-0.0625-0.51562-0.1875-0.67188-0.11719-0.15625-0.30859-0.35156-0.57812-0.59375-0.26172-0.20703-0.44531-0.39062-0.54688-0.54688-0.10547-0.16406-0.12109-0.37891-0.046875-0.64062 0.15625-0.61328 0.98828-1.1484 2.5-1.6094 1.5078-0.46875 3.082-0.70312 4.7188-0.70312 1.0938 0 1.9922 0.24609 2.7031 0.73438 0.71875 0.49219 1.1797 1.1875 1.3906 2.0938 1.2695-1.8828 2.9375-2.8281 5-2.8281z"/>
</g>
</g>
<g fill="#00a8de">
<g transform="translate(112.77 227.77)">
<path d="m11.609-13.562c0.10156 0 0.17969 0.03125 0.23438 0.09375 0.050781 0.0625 0.066406 0.14844 0.046875 0.25l-0.25 2.0781c-0.011719 0.10547-0.046875 0.1875-0.10938 0.25s-0.14844 0.09375-0.25 0.09375h-3.1406c-0.042969 0-0.078125 0.015625-0.10938 0.046875-0.03125 0.023438-0.046875 0.054688-0.046875 0.09375l-1.2656 10.312c-0.03125 0.23047-0.16406 0.34375-0.39062 0.34375h-2.4375c-0.10547 0-0.18359-0.03125-0.23438-0.09375-0.054688-0.0625-0.070312-0.14453-0.046875-0.25l1.25-10.312c0-0.09375-0.039063-0.14062-0.10938-0.14062h-3.0312c-0.10547 0-0.18359-0.03125-0.23438-0.09375-0.042969-0.0625-0.058594-0.14453-0.046875-0.25l0.25-2.0781c0.007812-0.10156 0.046875-0.1875 0.10938-0.25 0.070313-0.0625 0.15625-0.09375 0.25-0.09375z"/>
</g>
</g>
<g fill="#00a8de">
<g transform="translate(127.44 227.77)">
<path d="m6.8125-10.156c0.39453 0 0.71875 0.074219 0.96875 0.21875 0.10156 0.0625 0.15625 0.15234 0.15625 0.26562 0 0.0625-0.007812 0.11719-0.015625 0.15625l-0.73438 2.4844c-0.023438 0.11719-0.070312 0.1875-0.14062 0.21875-0.0625 0.03125-0.15234 0.039062-0.26562 0.015625-0.15625-0.039063-0.34375-0.0625-0.5625-0.0625-0.21094 0-0.36719 0.015625-0.46875 0.046875-0.38672 0.042969-0.73047 0.19531-1.0312 0.45312-0.30469 0.26172-0.48047 0.60547-0.53125 1.0312l-0.60938 4.9844c-0.03125 0.23047-0.15625 0.34375-0.375 0.34375h-2.4531c-0.10547 0-0.18359-0.03125-0.23438-0.09375-0.042969-0.0625-0.058594-0.14453-0.046875-0.25l1.1406-9.3281c0.007813-0.10156 0.046875-0.1875 0.10938-0.25 0.070312-0.0625 0.15625-0.09375 0.25-0.09375h2.4531c0.10156 0 0.17969 0.03125 0.23438 0.09375 0.0625 0.0625 0.085938 0.14844 0.078125 0.25l-0.0625 0.4375c-0.011719 0.0625 0 0.10156 0.03125 0.10938 0.03125 0.011719 0.066406-0.007812 0.10938-0.0625 0.55078-0.64453 1.2188-0.96875 2-0.96875z"/>
</g>
</g>
<g fill="#00a8de">
<g transform="translate(138.37 227.77)">
<path d="m7.4219-9.6719c0.039063-0.22656 0.17188-0.34375 0.39062-0.34375h2.4375c0.10156 0 0.17969 0.03125 0.23438 0.09375 0.050781 0.0625 0.070313 0.14844 0.0625 0.25l-1.1562 9.3281c-0.011719 0.10547-0.046875 0.1875-0.10938 0.25s-0.14844 0.09375-0.25 0.09375h-2.4375c-0.10547 0-0.1875-0.03125-0.25-0.09375-0.054688-0.0625-0.074219-0.14453-0.0625-0.25l0.046875-0.46875c0.019531-0.0625 0.015625-0.097656-0.015625-0.10938-0.03125-0.019531-0.070312-0.003906-0.10938 0.046875-0.58594 0.6875-1.3398 1.0312-2.2656 1.0312-0.8125 0-1.5391-0.27344-2.1719-0.82812-0.625-0.5625-1.0078-1.2812-1.1406-2.1562-0.074219-0.41406-0.10938-0.78516-0.10938-1.1094 0-0.25781 0.023437-0.63281 0.078125-1.125 0.10156-0.875 0.33594-1.6875 0.70312-2.4375 0.38281-0.80078 0.92578-1.4453 1.625-1.9375 0.70703-0.5 1.4609-0.75 2.2656-0.75 0.96875 0 1.6484 0.29688 2.0469 0.89062 0.019531 0.054687 0.046875 0.074219 0.078125 0.0625 0.039062-0.019531 0.0625-0.0625 0.0625-0.125zm-1.1094 6.2656c0.26953-0.4375 0.44531-0.96875 0.53125-1.5938 0.019531-0.3125 0.03125-0.52344 0.03125-0.64062 0-0.42578-0.058594-0.78125-0.17188-1.0625-0.21094-0.4375-0.54297-0.65625-1-0.65625-0.5 0-0.90234 0.22656-1.2031 0.67188-0.27344 0.40625-0.46094 0.96875-0.5625 1.6875-0.03125 0.26172-0.046875 0.44531-0.046875 0.54688 0 0.40625 0.054687 0.76172 0.17188 1.0625 0.1875 0.48047 0.53516 0.71875 1.0469 0.71875 0.48828 0 0.89062-0.24219 1.2031-0.73438z"/>
</g>
</g>
<g fill="#00a8de">
<g transform="translate(152.48 227.77)">
<path d="m4.8594 0.15625c-1.0234 0-1.8867-0.26562-2.5938-0.79688-0.69922-0.53125-1.1562-1.2578-1.375-2.1875-0.09375-0.36328-0.14062-0.77344-0.14062-1.2344 0-0.34375 0.019531-0.67578 0.0625-1 0.10156-0.875 0.3125-1.6133 0.625-2.2188 0.4375-0.90625 1.0703-1.6133 1.9062-2.125 0.83203-0.50781 1.7656-0.76562 2.7969-0.76562s1.9102 0.26562 2.6406 0.79688c0.72656 0.53125 1.1797 1.2031 1.3594 2.0156 0.039063 0.21875 0.0625 0.43359 0.0625 0.64062 0 0.21875-0.11719 0.35156-0.34375 0.39062l-2.4375 0.35938-0.09375 0.015625c-0.085937 0-0.14844-0.019531-0.1875-0.0625-0.042969-0.039063-0.0625-0.097656-0.0625-0.17188l-0.046875-0.26562c-0.042969-0.28125-0.17969-0.50781-0.40625-0.6875-0.23047-0.1875-0.51172-0.28125-0.84375-0.28125-0.66797 0-1.1406 0.30469-1.4219 0.90625-0.17969 0.36719-0.30859 0.85938-0.39062 1.4844-0.042969 0.27344-0.0625 0.52344-0.0625 0.75 0 0.27344 0.019531 0.50781 0.0625 0.70312 0.16406 0.65625 0.57031 0.98438 1.2188 0.98438 0.3125 0 0.59766-0.082031 0.85938-0.25 0.25781-0.16406 0.46875-0.41016 0.625-0.73438l0.015625-0.10938c0.019531-0.0625 0.078125-0.125 0.17188-0.1875 0.09375-0.070312 0.17969-0.10156 0.26562-0.09375l2.3438 0.39062c0.23828 0.03125 0.32031 0.15625 0.25 0.375-0.03125 0.14844-0.089844 0.30859-0.17188 0.48438-0.39844 0.90625-1.0234 1.6172-1.875 2.125-0.84375 0.5-1.7812 0.75-2.8125 0.75z"/>
</g>
</g>
<g fill="#00a8de">
<g transform="translate(166.31 227.77)">
<path d="m0.75 0c-0.10547 0-0.18359-0.03125-0.23438-0.09375-0.042969-0.0625-0.058594-0.14453-0.046875-0.25l1.5625-12.875c0.007812-0.10156 0.050781-0.1875 0.125-0.25 0.070312-0.0625 0.16016-0.09375 0.26562-0.09375h2.4375c0.21875 0 0.31641 0.11719 0.29688 0.34375l-0.71875 5.8438v0.015625c0 0.054687 0.015625 0.085937 0.046875 0.09375 0.03125 0.011719 0.070313-0.007813 0.125-0.0625l2.25-2.4688c0.125-0.14453 0.26953-0.21875 0.4375-0.21875h2.7812c0.082031 0 0.14453 0.015625 0.1875 0.046875 0.050781 0.03125 0.078125 0.074219 0.078125 0.125 0 0.0625-0.039062 0.14844-0.10938 0.25l-2.7188 3.1094c-0.054687 0.0625-0.0625 0.125-0.03125 0.1875l2.0156 5.8906c0.019531 0.054688 0.03125 0.10156 0.03125 0.14062 0 0.074219-0.03125 0.13672-0.09375 0.1875-0.0625 0.054688-0.14844 0.078125-0.25 0.078125h-2.5469c-0.1875 0-0.30469-0.085938-0.34375-0.26562l-1.1562-4c-0.023437-0.050781-0.054687-0.078125-0.09375-0.078125-0.042969 0-0.078125 0.023438-0.10938 0.0625l-0.96875 1.2344c-0.054688 0.042969-0.078125 0.10156-0.078125 0.17188l-0.3125 2.5312c-0.03125 0.23047-0.15625 0.34375-0.375 0.34375z"/>
</g>
</g>
<g fill="#00a8de">
<g transform="translate(180.16 227.77)"/>
</g>
<g fill="#00a8de">
<g transform="translate(187.52 227.77)">
<path d="m3.4219-10.672c-0.49219 0-0.88672-0.14453-1.1875-0.4375-0.29297-0.28906-0.4375-0.67578-0.4375-1.1562 0-0.60156 0.19531-1.1016 0.59375-1.5 0.39453-0.39453 0.89453-0.59375 1.5-0.59375 0.50781 0 0.90625 0.14062 1.1875 0.42188 0.28906 0.27344 0.4375 0.64062 0.4375 1.1094 0 0.63672-0.19922 1.1562-0.59375 1.5625-0.38672 0.39844-0.88672 0.59375-1.5 0.59375zm-2.5156 10.672c-0.10547 0-0.1875-0.03125-0.25-0.09375-0.054688-0.0625-0.074219-0.14453-0.0625-0.25l1.1562-9.3281c0.03125-0.22656 0.15625-0.34375 0.375-0.34375h2.4531c0.10156 0 0.17578 0.03125 0.21875 0.09375 0.050781 0.0625 0.070313 0.14844 0.0625 0.25l-1.1406 9.3281c-0.011719 0.10547-0.054688 0.1875-0.125 0.25-0.0625 0.0625-0.14062 0.09375-0.23438 0.09375z"/>
</g>
</g>
<g fill="#00a8de">
<g transform="translate(196.09 227.77)">
<path d="m7.3594-7.7812c-0.011719 0.09375-0.054687 0.17969-0.125 0.25-0.074219 0.0625-0.16406 0.09375-0.26562 0.09375h-1.5469c-0.074219 0-0.125 0.046875-0.15625 0.14062l-0.40625 3.3906c-0.011719 0.074219-0.015625 0.17188-0.015625 0.29688 0 0.53125 0.24219 0.79688 0.73438 0.79688h0.60938c0.09375 0 0.16406 0.039062 0.21875 0.10938 0.050781 0.0625 0.070312 0.14844 0.0625 0.25l-0.25 2.0312c-0.011719 0.21094-0.13672 0.32422-0.375 0.34375-0.5625 0.03125-0.96875 0.046875-1.2188 0.046875-0.99219 0-1.7305-0.14453-2.2188-0.4375-0.49219-0.28906-0.73438-0.83203-0.73438-1.625 0-0.10156 0.007813-0.26953 0.03125-0.5l0.57812-4.7031v-0.046875c0-0.0625-0.039062-0.09375-0.10938-0.09375h-0.90625c-0.10547 0-0.1875-0.03125-0.25-0.09375-0.054687-0.070312-0.074219-0.15625-0.0625-0.25l0.23438-1.8906c0.03125-0.22656 0.15625-0.34375 0.375-0.34375h0.92188c0.03125 0 0.0625-0.007813 0.09375-0.03125 0.039063-0.03125 0.0625-0.066406 0.0625-0.10938l0.26562-2.1875c0.007812-0.10156 0.050781-0.1875 0.125-0.25 0.070312-0.0625 0.16016-0.09375 0.26562-0.09375h2.2969c0.10156 0 0.17969 0.03125 0.23438 0.09375 0.050781 0.0625 0.070313 0.14844 0.0625 0.25l-0.26562 2.1875c0 0.09375 0.035156 0.14062 0.10938 0.14062h1.5625c0.10156 0 0.17969 0.03125 0.23438 0.09375 0.050781 0.0625 0.070312 0.14844 0.0625 0.25z"/>
</g>
</g>
<g fill="#00a8de">
<g transform="translate(206.94 227.77)">
<path d="m2.0938 0.10938c-0.5 0-0.91406-0.14844-1.2344-0.45312-0.3125-0.3125-0.46875-0.70312-0.46875-1.1719 0-0.11328 0.003906-0.19531 0.015625-0.25 0.050781-0.5 0.29688-0.92969 0.73438-1.2969 0.4375-0.36328 0.89844-0.54688 1.3906-0.54688 0.46875 0 0.875 0.16406 1.2188 0.48438 0.34375 0.3125 0.51562 0.70312 0.51562 1.1719 0 0.5625-0.21484 1.0469-0.64062 1.4531-0.42969 0.40625-0.9375 0.60938-1.5312 0.60938z"/>
</g>
</g>
<g fill="#00a8de">
<g transform="translate(215.52 227.77)"/>
</g>
<g fill="#00a8de">
<g transform="translate(222.88 227.77)">
<path d="m5.2344 0.15625c-1.4062 0-2.5234-0.32812-3.3438-0.98438-0.8125-0.66406-1.2188-1.5508-1.2188-2.6562 0-0.11328 0.015625-0.30078 0.046875-0.5625l0.03125-0.25c0.019531-0.10156 0.0625-0.1875 0.125-0.25 0.070312-0.070313 0.16016-0.10938 0.26562-0.10938h2.3906c0.10156 0 0.17969 0.027344 0.23438 0.078125 0.0625 0.042969 0.085937 0.09375 0.078125 0.15625l-0.046875 0.23438c-0.054687 0.41797 0.10156 0.78906 0.46875 1.1094 0.375 0.32422 0.88281 0.48438 1.5312 0.48438 0.59375 0 1.0352-0.13281 1.3281-0.40625 0.28906-0.28125 0.4375-0.59375 0.4375-0.9375 0-0.32031-0.14062-0.56641-0.42188-0.73438-0.28125-0.16406-0.78125-0.37891-1.5-0.64062-0.0625-0.019531-0.13281-0.039062-0.20312-0.0625-0.074219-0.03125-0.14062-0.0625-0.20312-0.09375-0.71094-0.25-1.3359-0.51562-1.875-0.79688-0.53125-0.28906-0.98438-0.67969-1.3594-1.1719-0.375-0.48828-0.5625-1.0859-0.5625-1.7969 0-0.10156 0.007812-0.27344 0.03125-0.51562 0.10156-0.80078 0.39453-1.5 0.875-2.0938 0.47656-0.60156 1.0977-1.0664 1.8594-1.3906 0.75781-0.32031 1.5977-0.48438 2.5156-0.48438 0.89453 0 1.6875 0.15625 2.375 0.46875 0.69531 0.3125 1.2383 0.75781 1.625 1.3281 0.38281 0.57422 0.57812 1.2344 0.57812 1.9844 0 0.11719-0.015625 0.30469-0.046875 0.5625l-0.015625 0.15625c-0.011719 0.10547-0.046875 0.1875-0.10938 0.25s-0.14844 0.09375-0.25 0.09375h-2.4062c-0.10547 0-0.1875-0.015625-0.25-0.046875-0.054688-0.039063-0.074219-0.085937-0.0625-0.14062l0.015625-0.17188 0.03125-0.20312c0-0.41406-0.17188-0.77344-0.51562-1.0781-0.34375-0.30078-0.82031-0.45312-1.4219-0.45312-0.53125 0-0.95312 0.12109-1.2656 0.35938-0.3125 0.24219-0.46875 0.57422-0.46875 1 0 0.23047 0.082031 0.43359 0.25 0.60938 0.16406 0.16797 0.41406 0.32422 0.75 0.46875 0.34375 0.14844 0.86328 0.35156 1.5625 0.60938 0.76953 0.27344 1.3789 0.51562 1.8281 0.73438 0.44531 0.21094 0.85938 0.54688 1.2344 1.0156 0.38281 0.46094 0.57812 1.0547 0.57812 1.7812 0 0.085937-0.015625 0.24609-0.046875 0.48438-0.09375 0.8125-0.39062 1.5273-0.89062 2.1406-0.49219 0.60547-1.1328 1.0781-1.9219 1.4219-0.78125 0.33594-1.6641 0.5-2.6406 0.5z"/>
</g>
</g>
<g fill="#00a8de">
<g transform="translate(237.65 227.77)">
<path d="m7.4219-9.6719c0.039063-0.22656 0.17188-0.34375 0.39062-0.34375h2.4375c0.10156 0 0.17969 0.03125 0.23438 0.09375 0.050781 0.0625 0.070313 0.14844 0.0625 0.25l-1.1562 9.3281c-0.011719 0.10547-0.046875 0.1875-0.10938 0.25s-0.14844 0.09375-0.25 0.09375h-2.4375c-0.10547 0-0.1875-0.03125-0.25-0.09375-0.054688-0.0625-0.074219-0.14453-0.0625-0.25l0.046875-0.46875c0.019531-0.0625 0.015625-0.097656-0.015625-0.10938-0.03125-0.019531-0.070312-0.003906-0.10938 0.046875-0.58594 0.6875-1.3398 1.0312-2.2656 1.0312-0.8125 0-1.5391-0.27344-2.1719-0.82812-0.625-0.5625-1.0078-1.2812-1.1406-2.1562-0.074219-0.41406-0.10938-0.78516-0.10938-1.1094 0-0.25781 0.023437-0.63281 0.078125-1.125 0.10156-0.875 0.33594-1.6875 0.70312-2.4375 0.38281-0.80078 0.92578-1.4453 1.625-1.9375 0.70703-0.5 1.4609-0.75 2.2656-0.75 0.96875 0 1.6484 0.29688 2.0469 0.89062 0.019531 0.054687 0.046875 0.074219 0.078125 0.0625 0.039062-0.019531 0.0625-0.0625 0.0625-0.125zm-1.1094 6.2656c0.26953-0.4375 0.44531-0.96875 0.53125-1.5938 0.019531-0.3125 0.03125-0.52344 0.03125-0.64062 0-0.42578-0.058594-0.78125-0.17188-1.0625-0.21094-0.4375-0.54297-0.65625-1-0.65625-0.5 0-0.90234 0.22656-1.2031 0.67188-0.27344 0.40625-0.46094 0.96875-0.5625 1.6875-0.03125 0.26172-0.046875 0.44531-0.046875 0.54688 0 0.40625 0.054687 0.76172 0.17188 1.0625 0.1875 0.48047 0.53516 0.71875 1.0469 0.71875 0.48828 0 0.89062-0.24219 1.2031-0.73438z"/>
</g>
</g>
<g fill="#00a8de">
<g transform="translate(251.77 227.77)">
<path d="m3.2969 0c-0.21094 0-0.33594-0.097656-0.375-0.29688l-1.7188-9.3281v-0.078125c0-0.20703 0.10938-0.3125 0.32812-0.3125h2.6875c0.09375 0 0.16406 0.03125 0.21875 0.09375 0.0625 0.054687 0.097656 0.125 0.10938 0.21875l0.60938 5.1562c0.007812 0.054687 0.03125 0.078125 0.0625 0.078125s0.054688-0.023438 0.078125-0.078125l1.8281-5.1562c0.03125-0.09375 0.082031-0.16406 0.15625-0.21875 0.082031-0.0625 0.16406-0.09375 0.25-0.09375l2.7188 0.015625c0.09375 0 0.16406 0.015625 0.21875 0.046875 0.050781 0.03125 0.078125 0.085937 0.078125 0.15625 0 0.054687-0.023437 0.11719-0.0625 0.1875l-4 9.3125c-0.085937 0.19922-0.23047 0.29688-0.4375 0.29688z"/>
</g>
</g>
<g fill="#00a8de">
<g transform="translate(265.44 227.77)">
<path d="m5.625-2.5781c0.39453 0 0.76562-0.054687 1.1094-0.17188 0.35156-0.125 0.64453-0.28906 0.875-0.5 0.09375-0.09375 0.17578-0.14062 0.25-0.14062 0.09375 0 0.16406 0.046875 0.21875 0.14062l0.98438 1.4219c0.050781 0.074219 0.078125 0.15234 0.078125 0.23438 0 0.085938-0.039063 0.17969-0.10938 0.28125-0.49219 0.46094-1.0781 0.82031-1.7656 1.0781-0.6875 0.25781-1.3984 0.39062-2.125 0.39062-0.85547 0-1.5938-0.15625-2.2188-0.46875-0.61719-0.32031-1.1055-0.76562-1.4688-1.3281-0.4375-0.72656-0.65625-1.582-0.65625-2.5625 0-0.28125 0.019531-0.57812 0.0625-0.89062 0.0625-0.58203 0.20312-1.1641 0.42188-1.75 0.38281-1 1.0156-1.8047 1.8906-2.4219 0.88281-0.61328 1.8672-0.92188 2.9531-0.92188 1.25 0 2.207 0.40234 2.875 1.2031 0.67578 0.80469 1.0469 1.918 1.1094 3.3438 0 0.52344-0.011719 0.91797-0.03125 1.1875-0.011719 0.23047-0.14062 0.34375-0.39062 0.34375h-5.6719c-0.09375 0-0.14062 0.046875-0.14062 0.14062 0 0.16797 0.019531 0.30469 0.0625 0.40625 0.082031 0.32422 0.26953 0.57031 0.5625 0.73438 0.28906 0.16797 0.66406 0.25 1.125 0.25zm0.09375-4.8438c-0.625 0-1.1016 0.32031-1.4219 0.95312l-0.10938 0.28125-0.015625 0.0625c0 0.03125 0.015625 0.058594 0.046875 0.078125 0.03125 0.011719 0.054688 0.015625 0.078125 0.015625h2.5625c0.050781 0 0.085937-0.015625 0.10938-0.046875 0.03125-0.03125 0.039062-0.066406 0.03125-0.10938l-0.046875-0.25c-0.0625-0.30078-0.19922-0.53906-0.40625-0.71875-0.21094-0.17578-0.48438-0.26562-0.82812-0.26562z"/>
</g>
</g>
<g fill="#00a8de">
<g transform="translate(279.4 227.77)"/>
</g>
<g fill="#00a8de">
<g transform="translate(286.76 227.77)">
<path d="m3.4219-10.672c-0.49219 0-0.88672-0.14453-1.1875-0.4375-0.29297-0.28906-0.4375-0.67578-0.4375-1.1562 0-0.60156 0.19531-1.1016 0.59375-1.5 0.39453-0.39453 0.89453-0.59375 1.5-0.59375 0.50781 0 0.90625 0.14062 1.1875 0.42188 0.28906 0.27344 0.4375 0.64062 0.4375 1.1094 0 0.63672-0.19922 1.1562-0.59375 1.5625-0.38672 0.39844-0.88672 0.59375-1.5 0.59375zm-2.5156 10.672c-0.10547 0-0.1875-0.03125-0.25-0.09375-0.054688-0.0625-0.074219-0.14453-0.0625-0.25l1.1562-9.3281c0.03125-0.22656 0.15625-0.34375 0.375-0.34375h2.4531c0.10156 0 0.17578 0.03125 0.21875 0.09375 0.050781 0.0625 0.070313 0.14844 0.0625 0.25l-1.1406 9.3281c-0.011719 0.10547-0.054688 0.1875-0.125 0.25-0.0625 0.0625-0.14062 0.09375-0.23438 0.09375z"/>
</g>
</g>
<g fill="#00a8de">
<g transform="translate(295.34 227.77)">
<path d="m7.3594-7.7812c-0.011719 0.09375-0.054687 0.17969-0.125 0.25-0.074219 0.0625-0.16406 0.09375-0.26562 0.09375h-1.5469c-0.074219 0-0.125 0.046875-0.15625 0.14062l-0.40625 3.3906c-0.011719 0.074219-0.015625 0.17188-0.015625 0.29688 0 0.53125 0.24219 0.79688 0.73438 0.79688h0.60938c0.09375 0 0.16406 0.039062 0.21875 0.10938 0.050781 0.0625 0.070312 0.14844 0.0625 0.25l-0.25 2.0312c-0.011719 0.21094-0.13672 0.32422-0.375 0.34375-0.5625 0.03125-0.96875 0.046875-1.2188 0.046875-0.99219 0-1.7305-0.14453-2.2188-0.4375-0.49219-0.28906-0.73438-0.83203-0.73438-1.625 0-0.10156 0.007813-0.26953 0.03125-0.5l0.57812-4.7031v-0.046875c0-0.0625-0.039062-0.09375-0.10938-0.09375h-0.90625c-0.10547 0-0.1875-0.03125-0.25-0.09375-0.054687-0.070312-0.074219-0.15625-0.0625-0.25l0.23438-1.8906c0.03125-0.22656 0.15625-0.34375 0.375-0.34375h0.92188c0.03125 0 0.0625-0.007813 0.09375-0.03125 0.039063-0.03125 0.0625-0.066406 0.0625-0.10938l0.26562-2.1875c0.007812-0.10156 0.050781-0.1875 0.125-0.25 0.070312-0.0625 0.16016-0.09375 0.26562-0.09375h2.2969c0.10156 0 0.17969 0.03125 0.23438 0.09375 0.050781 0.0625 0.070313 0.14844 0.0625 0.25l-0.26562 2.1875c0 0.09375 0.035156 0.14062 0.10938 0.14062h1.5625c0.10156 0 0.17969 0.03125 0.23438 0.09375 0.050781 0.0625 0.070312 0.14844 0.0625 0.25z"/>
</g>
</g>
</svg>
