<svg xmlns="http://www.w3.org/2000/svg" xmlns:xlink="http://www.w3.org/1999/xlink" width="300" zoomAndPan="magnify" viewBox="0 0 224.87999 74.999997" height="100" preserveAspectRatio="xMidYMid meet" version="1.0"><defs><clipPath id="d9436ffc38"><path d="M 102 22 L 123.882812 22 L 123.882812 42 L 102 42 Z M 102 22 " clip-rule="nonzero"/></clipPath><clipPath id="7ab7b041c3"><path d="M 100.648438 19.582031 L 115 19.582031 L 115 39 L 100.648438 39 Z M 100.648438 19.582031 " clip-rule="nonzero"/></clipPath><clipPath id="ad41ed8309"><path d="M 109 42 L 123 42 L 123 43.570312 L 109 43.570312 Z M 109 42 " clip-rule="nonzero"/></clipPath></defs><g clip-path="url(#d9436ffc38)"><path fill="#046db5" d="M 116.199219 35.617188 C 124.820312 28.851562 123.019531 23.046875 116.925781 22.546875 C 119.574219 22.082031 121.828125 22.59375 123.023438 24.183594 C 125.335938 27.253906 122.820312 33.1875 117.410156 37.433594 C 112 41.675781 105.742188 42.628906 103.425781 39.554688 C 102.230469 37.964844 102.328125 35.609375 103.445312 33.117188 C 100.960938 40.085938 108.660156 41.523438 116.199219 35.613281 Z M 116.199219 35.617188 " fill-opacity="1" fill-rule="evenodd"/></g><path fill="#046db5" d="M 109.839844 29.472656 C 109.980469 29.191406 110.445312 28.746094 110.839844 28.605469 L 110.789062 28.441406 L 110.597656 27.835938 L 111.625 27.496094 L 111.878906 28.300781 C 112.082031 28.238281 112.398438 28.285156 112.570312 28.304688 C 112.789062 28.328125 112.988281 28.390625 113.171875 28.488281 C 113.527344 28.675781 113.871094 29 114.042969 29.542969 L 112.925781 29.910156 C 112.863281 29.71875 112.746094 29.582031 112.628906 29.492188 C 112.546875 29.433594 112.304688 29.328125 112.203125 29.335938 L 112.65625 30.78125 C 112.816406 30.730469 113.210938 30.730469 113.359375 30.726562 C 113.5625 30.722656 113.828125 30.75 114.007812 30.800781 C 114.367188 30.90625 114.757812 31.21875 114.917969 31.71875 L 114.980469 31.917969 C 115.152344 32.457031 114.996094 32.9375 114.808594 33.296875 C 114.660156 33.578125 114.148438 34.058594 113.738281 34.203125 L 113.921875 34.785156 L 112.894531 35.125 L 112.707031 34.53125 C 112.0625 34.683594 111.261719 34.539062 110.78125 34.046875 C 110.632812 33.894531 110.46875 33.664062 110.386719 33.390625 L 110.347656 33.277344 L 111.421875 32.921875 C 111.441406 32.914062 111.75 33.339844 111.820312 33.394531 C 111.929688 33.476562 112.226562 33.578125 112.390625 33.527344 L 111.90625 31.992188 C 111.789062 32.027344 111.359375 32.027344 111.230469 32.027344 C 109.960938 32.011719 109.257812 30.628906 109.832031 29.46875 Z M 116.769531 34.339844 C 116.019531 31.722656 116.039062 28.003906 116.832031 23.175781 L 116.585938 23.15625 C 114.875 23.917969 111.691406 25.34375 107.039062 27.421875 C 107.375 31.832031 108.613281 35.359375 110.753906 38.007812 C 112.589844 37.347656 114.34375 36.273438 115.820312 35.113281 C 116.132812 34.871094 116.449219 34.613281 116.769531 34.339844 Z M 116.769531 34.339844 " fill-opacity="1" fill-rule="evenodd"/><g clip-path="url(#7ab7b041c3)"><path fill="#00a8de" d="M 106.472656 27.164062 C 103.953125 28.367188 106.472656 27.164062 114.027344 23.554688 L 113.777344 21.257812 L 104.125 26.023438 C 104.167969 30.101562 105.539062 33.777344 108.246094 37.746094 C 105.070312 33.515625 103.433594 30.027344 103.347656 25.671875 C 100.726562 26.941406 103.347656 25.671875 111.207031 21.867188 L 110.828125 19.613281 L 100.644531 23.914062 C 100.953125 26.40625 102.074219 29.574219 103.722656 32.554688 L 104.085938 33.1875 C 105.265625 35.207031 106.683594 37.109375 108.25 38.617188 C 108.390625 38.601562 108.527344 38.582031 108.660156 38.5625 C 109.230469 38.464844 109.800781 38.324219 110.367188 38.136719 C 108.238281 35.714844 106.890625 32.207031 106.46875 27.164062 Z M 106.472656 27.164062 " fill-opacity="1" fill-rule="evenodd"/></g><path fill="#046db5" d="M 110.792969 29.941406 C 110.59375 30.246094 110.734375 30.699219 111.070312 30.820312 C 111.144531 30.847656 111.453125 30.875 111.550781 30.851562 L 111.15625 29.609375 C 111.050781 29.652344 110.84375 29.863281 110.792969 29.945312 Z M 110.792969 29.941406 " fill-opacity="1" fill-rule="evenodd"/><path fill="#046db5" d="M 113.015625 31.898438 L 113.433594 33.214844 C 113.621094 33.144531 113.738281 32.972656 113.828125 32.847656 C 113.914062 32.722656 113.945312 32.496094 113.882812 32.292969 L 113.875 32.257812 C 113.769531 31.9375 113.304688 31.875 113.015625 31.898438 Z M 113.015625 31.898438 " fill-opacity="1" fill-rule="evenodd"/><path fill="#00a8de" d="M 117.792969 37.9375 C 116.5 38.949219 115.039062 39.871094 113.5 40.578125 C 113.71875 40.738281 113.945312 40.886719 114.179688 41.03125 C 113.917969 40.902344 113.660156 40.765625 113.414062 40.621094 C 112.929688 40.839844 112.4375 41.039062 111.941406 41.210938 C 114.867188 42.523438 118.03125 42.152344 121.003906 38.789062 C 119.992188 38.554688 119.140625 38.09375 118.453125 37.402344 C 118.234375 37.585938 118.015625 37.765625 117.792969 37.9375 Z M 117.792969 37.9375 " fill-opacity="1" fill-rule="evenodd"/><g clip-path="url(#ad41ed8309)"><path fill="#d2d3d5" d="M 115.816406 43.539062 C 119.253906 43.539062 122.039062 43.394531 122.039062 43.210938 C 122.039062 43.03125 119.253906 42.886719 115.816406 42.886719 C 112.382812 42.886719 109.597656 43.03125 109.597656 43.210938 C 109.597656 43.390625 112.382812 43.539062 115.816406 43.539062 Z M 115.816406 43.539062 " fill-opacity="1" fill-rule="evenodd"/></g><path fill="#42bae1" d="M 109.808594 26.671875 C 109.054688 27.007812 108.304688 27.34375 107.550781 27.679688 C 107.613281 28.570312 107.726562 29.457031 107.882812 30.347656 C 107.886719 29.203125 107.957031 28.410156 108.09375 27.96875 C 108.492188 27.535156 109.0625 27.101562 109.808594 26.671875 Z M 109.808594 26.671875 " fill-opacity="1" fill-rule="evenodd"/></svg>